<svg width="529" height="529" viewBox="0 0 529 529" fill="none" xmlns="http://www.w3.org/2000/svg">
<path d="M478.525 447.225L396.75 366.112C428.492 326.534 443.864 276.299 439.705 225.735C435.546 175.172 412.172 128.123 374.389 94.2644C336.606 60.4053 287.287 42.3092 236.572 43.697C185.856 45.0847 137.6 65.8508 101.725 101.725C65.8509 137.6 45.0847 185.856 43.697 236.571C42.3092 287.287 60.4054 336.606 94.2644 374.389C128.123 412.172 175.172 435.546 225.735 439.705C276.299 443.864 326.534 428.492 366.112 396.75L447.225 477.863C449.275 479.929 451.712 481.569 454.398 482.688C457.084 483.807 459.965 484.383 462.875 484.383C465.785 484.383 468.666 483.807 471.352 482.688C474.038 481.569 476.476 479.929 478.525 477.863C482.497 473.753 484.718 468.261 484.718 462.544C484.718 456.828 482.497 451.335 478.525 447.225ZM242.458 396.75C211.942 396.75 182.112 387.701 156.739 370.747C131.365 353.793 111.589 329.696 99.9114 301.503C88.2335 273.31 85.178 242.287 91.1314 212.358C97.0847 182.428 111.78 154.936 133.358 133.358C154.936 111.78 182.428 97.0847 212.358 91.1313C242.287 85.178 273.31 88.2334 301.503 99.9114C329.696 111.589 353.793 131.365 370.747 156.738C387.701 182.112 396.75 211.942 396.75 242.458C396.75 283.379 380.494 322.624 351.559 351.559C322.624 380.494 283.379 396.75 242.458 396.75Z" fill="black"/>
</svg>
