<svg width="2000" height="2000" viewBox="0 0 2000 2000" fill="none" xmlns="http://www.w3.org/2000/svg">
<path d="M1659.59 192.685H461.735C433.14 192.685 409.876 215.947 409.876 244.541V415.641H373.195C326.521 415.641 288.548 453.507 288.548 500.05V574.063C288.548 620.606 326.521 658.472 373.195 658.472H409.876V899.49H373.195C352.06 899.49 331.843 906.111 316.269 918.134C298.652 931.734 288.548 951.247 288.548 971.672V1029.05C288.548 1049.47 298.652 1068.99 316.269 1082.59C331.843 1094.61 352.06 1101.23 373.195 1101.23H409.876V1341.53H373.195C326.521 1341.53 288.548 1379.39 288.548 1425.94V1499.95C288.548 1546.49 326.521 1584.36 373.195 1584.36H409.876V1755.46C409.876 1784.06 433.14 1807.32 461.735 1807.32H1659.59C1688.19 1807.32 1711.45 1784.06 1711.45 1755.46V244.541C1711.45 215.947 1688.19 192.685 1659.59 192.685ZM348.548 574.063V500.05C348.548 486.591 359.605 475.641 373.195 475.641H506.557C520.148 475.641 531.205 486.591 531.205 500.05V574.063C531.205 587.522 520.148 598.472 506.557 598.472H373.195C359.605 598.472 348.548 587.522 348.548 574.063ZM348.548 1029.05V971.672C348.548 967.951 357.86 959.49 373.195 959.49H506.557C521.893 959.49 531.205 967.951 531.205 971.672V1029.05C531.205 1032.77 521.893 1041.23 506.557 1041.23H373.195C357.86 1041.23 348.548 1032.77 348.548 1029.05ZM348.548 1499.95V1425.94C348.548 1412.48 359.605 1401.53 373.195 1401.53H506.557C520.148 1401.53 531.205 1412.48 531.205 1425.94V1499.95C531.205 1513.41 520.148 1524.36 506.557 1524.36H373.195C359.605 1524.36 348.548 1513.41 348.548 1499.95ZM1651.45 1747.32H469.876V1584.36H506.557C553.232 1584.36 591.205 1546.49 591.205 1499.95V1425.94C591.205 1379.39 553.232 1341.53 506.557 1341.53H469.876V1101.23H506.557C527.691 1101.23 547.908 1094.61 563.483 1082.59C581.101 1068.99 591.205 1049.47 591.205 1029.05V971.672C591.205 951.247 581.101 931.732 563.483 918.134C547.908 906.111 527.691 899.49 506.557 899.49H469.876V658.472H506.557C553.232 658.472 591.205 620.606 591.205 574.063V500.05C591.205 453.507 553.232 415.641 506.557 415.641H469.876V252.685H1651.45V1747.32Z" fill="#E8E8E8"/>
<path d="M1060.66 1033.16C1165.98 1033.16 1251.66 947.482 1251.66 842.167C1251.66 736.852 1165.98 651.171 1060.66 651.171C955.349 651.171 869.668 736.852 869.668 842.167C869.668 947.482 955.349 1033.16 1060.66 1033.16ZM1060.66 711.171C1132.89 711.171 1191.66 769.935 1191.66 842.167C1191.66 914.398 1132.89 973.163 1060.66 973.163C988.433 973.163 929.668 914.398 929.668 842.167C929.668 769.935 988.433 711.171 1060.66 711.171ZM785.462 1304.33C798.623 1313.8 816.575 1322.06 838.821 1328.86C880.915 1341.74 936.106 1348.83 994.226 1348.83H1127.1C1185.22 1348.83 1240.41 1341.74 1282.5 1328.86C1304.75 1322.06 1322.7 1313.8 1335.86 1304.32C1359.71 1287.15 1364.72 1268.2 1364.72 1255.32C1364.72 1145.09 1258.12 1055.42 1127.1 1055.42H994.226C863.205 1055.42 756.61 1145.09 756.61 1255.32C756.61 1268.2 761.616 1287.15 785.462 1304.33ZM866.596 1158.54C900.579 1130.73 945.905 1115.42 994.226 1115.42H1127.1C1175.42 1115.42 1220.75 1130.73 1254.73 1158.54C1286.11 1184.22 1303.76 1217.47 1304.68 1252.45C1300.68 1256.69 1286.3 1266.32 1252.52 1274.96C1217.58 1283.91 1173.04 1288.83 1127.1 1288.83H994.226C948.285 1288.83 903.742 1283.91 868.802 1274.96C835.026 1266.32 820.645 1256.69 816.648 1252.45C817.563 1217.47 835.218 1184.22 866.596 1158.54Z" fill="#E8E8E8"/>
</svg>
